<svg xmlns="http://www.w3.org/2000/svg" xmlns:xlink="http://www.w3.org/1999/xlink" width="125" height="122" viewBox="0 0 125 122">
  <defs>
    <clipPath id="clip-path">
      <rect width="125" height="122" fill="none"/>
    </clipPath>
  </defs>
  <g id="Repeat_Grid_1" data-name="Repeat Grid 1" clip-path="url(#clip-path)">
    <g transform="translate(-198 -206)">
      <circle id="Ellipse_1" data-name="Ellipse 1" cx="7.5" cy="7.5" r="7.5" transform="translate(197 208)" fill="#5222d0"/>
    </g>
    <g transform="translate(-165 -206)">
      <circle id="Ellipse_1-2" data-name="Ellipse 1" cx="7.5" cy="7.5" r="7.5" transform="translate(197 208)" fill="#5222d0"/>
    </g>
    <g transform="translate(-132 -206)">
      <circle id="Ellipse_1-3" data-name="Ellipse 1" cx="7.5" cy="7.5" r="7.5" transform="translate(197 208)" fill="#5222d0"/>
    </g>
    <g transform="translate(-99 -206)">
      <circle id="Ellipse_1-4" data-name="Ellipse 1" cx="7.5" cy="7.5" r="7.5" transform="translate(197 208)" fill="#5222d0"/>
    </g>
    <g transform="translate(-198 -173)">
      <circle id="Ellipse_1-5" data-name="Ellipse 1" cx="7.5" cy="7.5" r="7.5" transform="translate(197 208)" fill="#5222d0"/>
    </g>
    <g transform="translate(-165 -173)">
      <circle id="Ellipse_1-6" data-name="Ellipse 1" cx="7.5" cy="7.5" r="7.5" transform="translate(197 208)" fill="#5222d0"/>
    </g>
    <g transform="translate(-132 -173)">
      <circle id="Ellipse_1-7" data-name="Ellipse 1" cx="7.5" cy="7.5" r="7.5" transform="translate(197 208)" fill="#5222d0"/>
    </g>
    <g transform="translate(-99 -173)">
      <circle id="Ellipse_1-8" data-name="Ellipse 1" cx="7.5" cy="7.5" r="7.5" transform="translate(197 208)" fill="#5222d0"/>
    </g>
    <g transform="translate(-198 -140)">
      <circle id="Ellipse_1-9" data-name="Ellipse 1" cx="7.5" cy="7.5" r="7.5" transform="translate(197 208)" fill="#5222d0"/>
    </g>
    <g transform="translate(-165 -140)">
      <circle id="Ellipse_1-10" data-name="Ellipse 1" cx="7.5" cy="7.5" r="7.5" transform="translate(197 208)" fill="#5222d0"/>
    </g>
    <g transform="translate(-132 -140)">
      <circle id="Ellipse_1-11" data-name="Ellipse 1" cx="7.5" cy="7.5" r="7.5" transform="translate(197 208)" fill="#5222d0"/>
    </g>
    <g transform="translate(-99 -140)">
      <circle id="Ellipse_1-12" data-name="Ellipse 1" cx="7.5" cy="7.5" r="7.5" transform="translate(197 208)" fill="#5222d0"/>
    </g>
    <g transform="translate(-198 -107)">
      <circle id="Ellipse_1-13" data-name="Ellipse 1" cx="7.5" cy="7.5" r="7.5" transform="translate(197 208)" fill="#5222d0"/>
    </g>
    <g transform="translate(-165 -107)">
      <circle id="Ellipse_1-14" data-name="Ellipse 1" cx="7.5" cy="7.5" r="7.5" transform="translate(197 208)" fill="#5222d0"/>
    </g>
    <g transform="translate(-132 -107)">
      <circle id="Ellipse_1-15" data-name="Ellipse 1" cx="7.5" cy="7.5" r="7.5" transform="translate(197 208)" fill="#5222d0"/>
    </g>
    <g transform="translate(-99 -107)">
      <circle id="Ellipse_1-16" data-name="Ellipse 1" cx="7.5" cy="7.5" r="7.5" transform="translate(197 208)" fill="#5222d0"/>
    </g>
  </g>
</svg>
