<svg id="expand-svgrepo-com" xmlns="http://www.w3.org/2000/svg" width="511.995" height="512" viewBox="0 0 511.995 512">
  <path id="Path_8" data-name="Path 8" d="M405.977,106.026l-1.7,124.171,67.8,67.8a13.106,13.106,0,0,0,22.373-9.216L495.5,16.5,223.22,17.549A13.105,13.105,0,0,0,214,39.922l67.8,67.8Z" transform="translate(-0.001)" fill="#989797"/>
  <g id="Group_1" data-name="Group 1" transform="translate(-0.001)">
    <path id="Path_9" data-name="Path 9" d="M507.168,4.833A16.5,16.5,0,0,0,495.5,0h-.063L223.157,1.046a29.607,29.607,0,0,0-20.824,50.542L260.947,110.2l-32.642,32.642a16.5,16.5,0,1,0,23.336,23.337l42.121-42.121,95.478-1.305-1.307,95.479-42.119,42.119a16.5,16.5,0,1,0,23.336,23.339l32.641-32.641,58.616,58.614a29.311,29.311,0,0,0,20.842,8.7,29.726,29.726,0,0,0,29.7-29.52L512,16.563A16.47,16.47,0,0,0,507.168,4.833ZM477.986,280.565l-57.111-57.111,1.6-117.2a16.5,16.5,0,0,0-16.727-16.727l-117.2,1.6L231.44,34.016l247.5-.951Z" fill="#989797"/>
    <path id="Path_10" data-name="Path 10" d="M173.375,355.13a16.5,16.5,0,0,1-11.668-28.172L326.963,161.7A16.5,16.5,0,0,1,350.3,185.041L185.043,350.3A16.454,16.454,0,0,1,173.375,355.13Z" fill="#989797"/>
  </g>
  <path id="Path_11" data-name="Path 11" d="M106.029,405.974l1.7-124.171L39.924,214a13.106,13.106,0,0,0-22.373,9.216L16.506,495.5l272.28-1.045A13.105,13.105,0,0,0,298,472.078l-67.8-67.8Z" transform="translate(-0.001)" fill="#989797"/>
  <path id="Path_12" data-name="Path 12" d="M309.671,460.41,251.057,401.8,283.7,369.154a16.5,16.5,0,0,0-23.339-23.337l-42.121,42.121-95.478,1.3,1.307-95.479,42.119-42.119a16.5,16.5,0,0,0-23.339-23.339l-32.641,32.641L51.591,202.333a29.311,29.311,0,0,0-20.842-8.7,29.726,29.726,0,0,0-29.7,29.52L0,495.435A16.5,16.5,0,0,0,16.5,512h.063l272.28-1.046a29.608,29.608,0,0,0,20.823-50.544Zm-276.6,18.522.951-247.5,57.109,57.111-1.6,117.2a16.51,16.51,0,0,0,4.832,11.895,16.733,16.733,0,0,0,11.895,4.832l117.2-1.6,57.108,57.109Z" transform="translate(-0.001)" fill="#989797"/>
</svg>
